ifElseDiacritics.sfdir
StartChar: L
Encoding: 76 76 40
Width: 1024
VWidth: 0
Flags: HW
HStem: 0 120<384 1024> 1260 20G<256 384>
VStem: 256 128<120 1280>
AnchorPoint: "bottom" 576 0 basechar 0
AnchorPoint: "top" 320 1152 basechar 0
LayerCount: 5
Back
Fore
SplineSet
256 0 m 1
 256 1152 l 5
 384 1152 l 5
 384 120 l 1
 1024 120 l 1
 1024 0 l 1
 256 0 l 1
EndSplineSet
Layer: 2
Layer: 3
Layer: 4
EndChar
StartChar: O
Encoding: 79 79 42
Width: 1024
VWidth: 0
Flags: HW
HStem: -16 120<404.584 747.416> 1048 120<404.584 747.416>
VStem: 112 128<284.074 867.926> 912 128<284.074 867.926>
AnchorPoint: "top" 576 1152 basechar 0
LayerCount: 5
Back
SplineSet
576 1492 m 4
 811.625 1492 976 1328.015625 976 1092 c 4
 976 865.425 811.625 708 576 708 c 4
 340.375 708 176 865.425 176 1092 c 4
 176 1328.015625 340.375 1492 576 1492 c 4
  Spiro
    576 1492 o
    784.248 1440.84 o
    924.757 1300.42 o
    976 1092 o
    924.757 891.915 o
    784.248 757.11 o
    576 708 o
    367.752 757.11 o
    227.243 891.915 o
    176 1092 o
    227.243 1300.42 o
    367.752 1440.84 o
    0 0 z
  EndSpiro
576 828 m 4
 811.625 828 976 670.575 976 444 c 4
 976 207.984375 811.625 44 576 44 c 4
 340.375 44 176 207.984375 176 444 c 4
 176 670.575 340.375 828 576 828 c 4
  Spiro
    576 828 o
    784.248 778.89 o
    924.757 644.085 o
    976 444 o
    924.757 235.578 o
    784.248 95.1567 o
    576 44 o
    367.752 95.1567 o
    227.243 235.578 o
    176 444 o
    227.243 644.085 o
    367.752 778.89 o
    0 0 z
  EndSpiro
EndSplineSet
Fore
SplineSet
912 576 m 4
 912 667 907 755 881 833 c 4
 839 961 740 1048 576 1048 c 4
 412 1048 313 961 271 833 c 4
 245 755 240 667 240 576 c 4
 240 485 245 397 271 319 c 4
 313 191 412 104 576 104 c 4
 740 104 839 191 881 319 c 4
 907 397 912 485 912 576 c 4
576 -16 m 4
 354 -16 206 110 149 284 c 4
 117 381 112 482 112 576 c 4
 112 670 117 771 149 868 c 4
 206 1042 354 1168 576 1168 c 4
 798 1168 946 1042 1003 868 c 4
 1035 771 1040 670 1040 576 c 4
 1040 482 1035 381 1003 284 c 4
 946 110 798 -16 576 -16 c 4
EndSplineSet
Layer: 2
SplineSet
576 1048 m 0
 516.331054688 1048 458.30859375 1036.10546875 409.926757812 1009.99902344 c 0
 377.452148438 992.475585938 348.088867188 967.537109375 324.874023438 937.5703125 c 0
 301.5625 907.477539062 283.549804688 871.45703125 270.923828125 832.69921875 c 0
 245.3828125 754.30078125 240 666.534179688 240 576 c 0
 240 485.46484375 245.3828125 397.700195312 270.923828125 319.30078125 c 0
 283.549804688 280.543945312 301.563476562 244.520507812 324.874023438 214.430664062 c 0
 348.088867188 184.461914062 377.453125 159.5234375 409.92578125 142.001953125 c 0
 458.30859375 115.89453125 516.331054688 104 576 104 c 0
 635.668945312 104 693.69140625 115.89453125 742.07421875 142.001953125 c 0
 774.546875 159.5234375 803.911132812 184.462890625 827.125976562 214.4296875 c 0
 850.4375 244.521484375 868.450195312 280.543945312 881.076171875 319.30078125 c 0
 906.6171875 397.700195312 912 485.465820312 912 576 c 0
 912 666.534179688 906.6171875 754.30078125 881.076171875 832.69921875 c 0
 868.450195312 871.456054688 850.436523438 907.478515625 827.125976562 937.569335938 c 0
 803.911132812 967.538085938 774.546875 992.475585938 742.07421875 1009.99804688 c 0
 693.69140625 1036.10644531 635.669921875 1048 576 1048 c 0
  Spiro
    576 1048 o
    517.234 1043.96 o
    461.172 1031.44 o
    409.927 1010 o
    378.632 990.115 o
    349.999 965.746 o
    324.874 937.57 o
    303.352 905.653 o
    285.326 870.39 o
    270.924 832.699 o
    251.569 751.506 o
    242.336 665.279 o
    240 576 o
    242.336 486.721 o
    251.569 400.494 o
    270.924 319.301 o
    285.326 281.61 o
    303.352 246.346 o
    324.874 214.431 o
    349.999 186.253 o
    378.632 161.885 o
    409.926 142.002 o
    461.172 120.563 o
    517.234 108.043 o
    576 104 o
    634.766 108.043 o
    690.828 120.563 o
    742.074 142.002 o
    773.368 161.885 o
    802.001 186.254 o
    827.126 214.43 o
    848.648 246.346 o
    866.674 281.61 o
    881.076 319.301 o
    900.431 400.494 o
    909.664 486.721 o
    912 576 o
    909.664 665.279 o
    900.431 751.506 o
    881.076 832.699 o
    866.674 870.39 o
    848.648 905.653 o
    827.126 937.569 o
    802.001 965.746 o
    773.368 990.114 o
    742.074 1010 o
    690.828 1031.44 o
    634.767 1043.96 o
    0 0 z
  EndSpiro
576 1168 m 0
 653.228515625 1168 733.830078125 1152.90527344 805.92578125 1114.00097656 c 0
 854.830078125 1087.61328125 897.282226562 1051.21679688 930.694335938 1008.0859375 c 0
 964.012695312 965.077148438 987.477539062 916.9140625 1003.49414062 867.751953125 c 0
 1035.23828125 770.310546875 1040 670.401367188 1040 576 c 0
 1040 481.598632812 1035.23828125 381.689453125 1003.49414062 284.249023438 c 0
 987.477539062 235.086914062 964.01171875 186.922851562 930.694335938 143.915039062 c 0
 897.282226562 100.782226562 854.830078125 64.38671875 805.92578125 37.998046875 c 0
 733.830078125 -0.904296875 653.229492188 -16 576 -16 c 0
 498.770507812 -16 418.169921875 -0.904296875 346.07421875 37.998046875 c 0
 297.169921875 64.38671875 254.717773438 100.783203125 221.305664062 143.9140625 c 0
 187.987304688 186.922851562 164.522460938 235.086914062 148.505859375 284.249023438 c 0
 116.76171875 381.689453125 112 481.598632812 112 576 c 0
 112 670.401367188 116.76171875 770.310546875 148.505859375 867.751953125 c 0
 164.522460938 916.9140625 187.98828125 965.078125 221.305664062 1008.08496094 c 0
 254.717773438 1051.21679688 297.170898438 1087.61328125 346.073242188 1114.00097656 c 0
 418.169921875 1152.90527344 498.770507812 1168 576 1168 c 0
  Spiro
    576 1168 o
    653.835 1162.66 o
    731.511 1145.27 o
    805.926 1114 o
    852.539 1084.43 o
    894.404 1048.81 o
    930.694 1008.09 o
    960.79 963.559 o
    984.927 916.379 o
    1003.49 867.752 o
    1027.05 769.882 o
    1037.6 671.845 o
    1040 576 o
    1037.6 480.155 o
    1027.05 382.119 o
    1003.49 284.249 o
    984.927 235.622 o
    960.79 188.442 o
    930.694 143.915 o
    894.404 103.187 o
    852.539 67.5685 o
    805.926 37.998 o
    731.511 6.73263 o
    653.835 -10.6565 o
    576 -16 o
    498.165 -10.6565 o
    420.489 6.73263 o
    346.074 37.998 o
    299.461 67.5687 o
    257.596 103.188 o
    221.306 143.914 o
    191.21 188.441 o
    167.073 235.622 o
    148.506 284.249 o
    124.949 382.119 o
    114.405 480.155 o
    112 576 o
    114.405 671.845 o
    124.949 769.882 o
    148.506 867.752 o
    167.073 916.379 o
    191.21 963.559 o
    221.306 1008.08 o
    257.596 1048.81 o
    299.461 1084.43 o
    346.073 1114 o
    420.488 1145.27 o
    498.165 1162.66 o
    0 0 z
  EndSpiro
EndSplineSet
Layer: 3
SplineSet
576 1108 m 0
 644.449674355 1108 713.760726503 1094.50519724 774 1062 c 0
 814.688315093 1040.04452758 850.596217045 1009.37710147 878.910444045 972.827323034 c 0
 907.224671044 936.2775446 927.963440665 894.185170644 942.284894278 850.225214769 c 0
 970.927801503 762.305303019 976 668.46797833 976 576 c 0
 976 483.53202167 970.927801503 389.694696981 942.284894278 301.774785231 c 0
 927.963440665 257.814829356 907.224671044 215.7224554 878.910444045 179.172676966 c 0
 850.596217045 142.622898533 814.688315093 111.955472416 774 90 c 0
 713.760726503 57.4948027561 644.449674355 44 576 44 c 0
 507.550325645 44 438.239273497 57.4948027561 378 90 c 0
 337.311684907 111.955472416 301.403782955 142.622898533 273.089555955 179.172676966 c 0
 244.775328956 215.7224554 224.036559335 257.814829356 209.715105722 301.774785231 c 0
 181.072198497 389.694696981 176 483.53202167 176 576 c 0
 176 668.46797833 181.072198497 762.305303019 209.715105722 850.225214769 c 0
 224.036559335 894.185170644 244.775328956 936.2775446 273.089555955 972.827323034 c 0
 301.403782955 1009.37710147 337.311684907 1040.04452758 378 1062 c 0
 438.239273497 1094.50519724 507.550325645 1108 576 1108 c 0
  Spiro
    576 1108 o
    774 1062 o
    976 576 o
    774 90 o
    576 44 o
    378 90 o
    176 576 o
    378 1062 o
    0 0 z
  EndSpiro
EndSplineSet
Layer: 4
EndChar
StartChar: Q
Encoding: 81 81 44
Width: 1024
VWidth: 0
Flags: W
HStem: -400 120<730.775 1021.59> -11.8376 115.838<423.632 512.557 640.699 729.305> 1304 120<420.271 731.729>
VStem: 112 128<320.249 1084.8> 512.557 128.143<-183.742 -5.28582> 912 128<320.284 1084.8>
LayerCount: 5
Back
Fore
SplineSet
576 1424 m 0
 814 1424 964 1256 1012 1053 c 0
 1040 935 1040 816.322265625 1040 704 c 0
 1040 591.677734375 1040 473 1012 355 c 0
 968.506782125 171.059932736 841.268199615 15.856020003 640.699484388 -11.6670349935 c 1
 642.777539128 -61.8259289448 650.781068283 -129.029271048 684 -182 c 0
 721 -241 776 -280 872 -280 c 0
 919.667374381 -280 972.029332605 -272.664848991 1024 -263.239257812 c 1
 1024 -385.145507812 l 1
 973.336979416 -393.654286569 921.947382915 -400 872 -400 c 0
 724 -400 628.014443156 -332.991363966 573 -241 c 0
 524.74756749 -160.315604656 514.663942244 -74.1396770544 512.55670138 -11.8376159548 c 1
 311.263033582 15.2085984963 183.583949749 170.676212518 140 355 c 0
 112 473 112 591.677734375 112 704 c 0
 112 816.32183908 112 935 140 1053 c 0
 188 1256 338 1424 576 1424 c 0
576 1304 m 0
 404 1304 301 1178 265 1026 c 0
 241 923 240 816 240 704 c 0
 240 592 241 485 265 382 c 0
 301 230 404 104 576 104 c 0
 748 104 851 230 887 382 c 0
 911 485 912 592 912 704 c 0
 912 816 911 923 887 1026 c 0
 851 1178 748 1304 576 1304 c 0
EndSplineSet
Layer: 2
Layer: 3
Layer: 4
EndChar
StartChar: R
Encoding: 82 82 45
Width: 1024
VWidth: 0
Flags: W
HStem: 0 21G<128 256 789.654 938> 520 120<256 556> 1032 120<256 721.137>
VStem: 128 128<0 520 640 1032> 784 128<702.863 967.871>
AnchorPoint: "top" 448 1152 basechar 0
AnchorPoint: "bottom" 576 0 basechar 0
LayerCount: 5
Back
Fore
SplineSet
553 1032 m 1026,0,-1
553 1152 m 2,1,-1
 591 1152 633 1152 679 1141 c 0,4,-1
 812 1109 912 997 912 836 c 0,7,-1
 912 679 817 569 689 534 c 1,10,-1
 938 0 l 1,11,-1
 799 0 l 1,12,-1
 556 520 l 1,13,-1
 256 520 l 1,14,-1
 256 0 l 1,15,-1
 128 0 l 1,16,-1
 128 1152 l 1,17,-1
 553 1152 l 2,1,-1
553 1032 m 2,18,-1
 256 1032 l 1,19,-1
 256 640 l 1,20,-1
 553 640 l 2,21,-1
 589 640 621 641 648 647 c 0,24,-1
 729 666 784 736 784 836 c 0,27,-1
 784 936 729 1007 648 1025 c 0,30,-1
 621 1031 589 1032 553 1032 c 2,18,-1
EndSplineSet
Layer: 2
SplineSet
204 448 m 29
 204 0 l 1053
603 960 m 6
 640.062544802 960 677.469668641 959.327562208 713.515625 950.70703125 c 4
 749.561636587 942.086487084 783.871158822 925.604742102 812.129882812 901.624023438 c 4
 840.388538003 877.643363157 862.400215487 846.57430912 876.73828125 812.397460938 c 4
 891.076335433 778.220640358 898 741.062496469 898 704 c 4
 898 666.937503531 891.076013072 629.779494878 876.73828125 595.602539062 c 4
 862.400537847 561.425555643 840.38865279 530.356501576 812.129882812 506.375976562 c 4
 783.871044034 482.395393164 749.561740808 465.913077116 713.515625 457.29296875 c 4
 677.469564421 448.672873591 640.062544802 448 603 448 c 6
 204 448 l 5
 204 960 l 5
 603 960 l 6
  Spiro
    603 960 ]
    898 704 o
    603 448 [
    204 448 v
    204 960 v
    0 0 z
  EndSpiro
EndSplineSet
Layer: 3
SplineSet
591 1152 m 6
 628.767578125 1152 671.772456508 1151.74216898 717.334960938 1140.84570312 c 4
 762.828125 1129.96582031 806.511411367 1109.13946044 843.079101562 1078.10742188 c 4
 879.462890625 1047.23144531 906.660896902 1008.40208758 924.297851562 966.358398438 c 4
 941.84765625 924.522460938 950 880.029296875 950 836 c 4
 950 791.966796875 941.848737186 747.478471839 924.297851562 705.642578125 c 4
 906.657226562 663.592773438 879.462830848 624.770752454 843.080078125 593.89453125 c 4
 806.514648438 562.86328125 762.820948561 542.033650405 717.334960938 531.155273438 c 4
 671.77734375 520.259765625 628.762695312 520 591 520 c 6
 256 520 l 5
 256 0 l 5
 128 0 l 5
 128 520 l 5
 128 580 l 5
 128 1152 l 5
 591 1152 l 6
591 1032 m 6
 256 1032 l 5
 256 640 l 5
 591 640 l 6
 627.362304688 640 659.161788157 641.087280806 685.696289062 647.431640625 c 4
 712.301757812 653.79296875 737.227614541 665.92666887 757.1796875 682.858398438 c 4
 777.313476562 699.944335938 794.143104774 723.258001249 805.178710938 749.5625 c 4
 816.303710938 776.080078125 822 805.908203125 822 836 c 4
 822 866.095703125 816.3040186 895.917688131 805.178710938 922.4375 c 4
 794.141601562 948.747070312 777.313782123 972.054873351 757.180664062 989.140625 c 4
 737.231445312 1006.0703125 712.294926226 1018.208026 685.696289062 1024.56933594 c 4
 659.166992188 1030.9140625 627.357421875 1032 591 1032 c 6
EndSplineSet
Layer: 4
EndChar
StartChar: T
Encoding: 84 84 47
Width: 1024
VWidth: 0
Flags: W
HStem: 0 21G<512 640> 1032 120<128 512 640 1024>
VStem: 512 128<0 1032>
AnchorPoint: "top" 576 1152 basechar 0
AnchorPoint: "bottom" 576 0 basechar 0
LayerCount: 5
Back
Fore
SplineSet
1024 1152 m 5
 1024 1032 l 5
 640 1032 l 5
 640 0 l 1
 512 0 l 1
 512 1032 l 5
 128 1032 l 5
 128 1152 l 5
 1024 1152 l 5
EndSplineSet
Layer: 2
Layer: 3
Layer: 4
EndChar
StartChar: W
Encoding: 87 87 50
Width: 1024
VWidth: 0
Flags: W
HStem: 0 21G<257 388.019 763.981 895> 1132 20G<116 247 905 1036>
VStem: 116 131<687.775 1152> 905 131<687.775 1152>
AnchorPoint: "top" 576 1152 basechar 0
LayerCount: 5
Back
Fore
SplineSet
514 768 m 5
 638 768 l 5
 812 190 l 5
 822 190 l 5
 887 480.469726562 905 824.498771503 905 1152 c 5
 1036 1152 l 5
 1036 766.04109589 988.377483444 382.332681017 895 2 c 5
 770 0 l 5
 581 628 l 5
 571 628 l 5
 382 0 l 5
 257 2 l 5
 163.622516556 382.332681017 116 766.04109589 116 1152 c 5
 247 1152 l 5
 247 824.498771503 266.370117188 480.469726562 330 190 c 5
 340 190 l 5
 514 768 l 5
EndSplineSet
Layer: 2
Layer: 3
Layer: 4
EndChar
StartChar: Z
Encoding: 90 90 53
Width: 1024
VWidth: 0
Flags: W
HStem: 0 120<283 1024> 1032 120<148 848.92>
AnchorPoint: "top" 576 1152 basechar 0
LayerCount: 5
Back
Fore
SplineSet
148 1032 m 1
 148 1152 l 1
 1004 1152 l 1
 1004 1062 l 1
 283.080078125 130 l 1
 283 120 l 1
 1024 120 l 1
 1024 0 l 1
 128 0 l 1
 128 92 l 1
 849 1022 l 5
 848.919921875 1032 l 5
 148 1032 l 1
EndSplineSet
Layer: 2
Layer: 3
Layer: 4
EndChar
StartChar: n
Encoding: 110 110 14
Width: 1024
VWidth: 0
Flags: W
HStem: 0 21G<256 384 768 896> 920 120<471.273 704.311> 1004 20G<256 384>
VStem: 256 128<0 857.984 912 1024> 768 128<0 854.076>
AnchorPoint: "bottom" 576 0 basechar 0
AnchorPoint: "top" 576 1024 basechar 0
LayerCount: 5
Back
SplineSet
576 1040 m 4
 621.263671875 1040 667.087890625 1031.70996094 709.947265625 1013.95605469 c 4
 753.072265625 996.08984375 792.40625 968.666992188 823.205078125 932.760742188 c 4
 854.138671875 896.698242188 874.440429688 854.264648438 885.052734375 810.37109375 c 4
 895.681640625 766.412109375 896 724.548828125 896 687 c 4
 896 0 l 5
 768 0 l 5
 768 687 l 4
 768 723.314453125 766.94921875 756.012695312 760.21875 783.845703125 c 4
 753.473632812 811.74609375 740.611328125 837.561523438 723.45703125 857.560546875 c 4
 706.166015625 877.717773438 683.328125 893.7890625 658.21484375 904.193359375 c 4
 632.833984375 914.70703125 604.59765625 920 576 920 c 1028
EndSplineSet
Fore
SplineSet
596 1040 m 0xd8
 696 1040 777 995 827 933 c 0
 896 847 896 751 896 657 c 2
 896 0 l 1
 768 0 l 1
 768 657 l 2
 768 744 768 806 723 858 c 0
 691 895 640 920 576 920 c 0xd8
 512 920 461 895 429 858 c 0
 384 806 384 744 384 657 c 2
 384 0 l 1
 256 0 l 1
 256 1024 l 1
 384 1024 l 1xb8
 384 912 l 1
 394 912 l 1
 443 989 520 1040 596 1040 c 0xd8
EndSplineSet
Layer: 2
SplineSet
576 980 m 0
 726.799715909 980 832 875.049715909 832 724 c 0
 832 572.950284091 726.799715909 468 576 468 c 0
 425.200284091 468 320 572.950284091 320 724 c 0
 320 875.049715909 425.200284091 980 576 980 c 0
EndSplineSet
Layer: 3
SplineSet
832 0 m 1
 832 687 l 2
 832 723.931084581 831.315327639 761.212048046 822.636028962 797.108771891 c 0
 813.956730285 833.005495737 797.375202654 867.129546756 773.330569776 895.160969091 c 0
 749.285936896 923.192391424 718.199859157 944.939953425 684.080580569 959.074302967 c 0
 649.961301981 973.208652508 612.931084581 980.000000001 576 980 c 0
 539.068915419 980 502.038698018 973.208652506 467.91941943 959.074302963 c 0
 433.800140842 944.93995342 402.714063103 923.192391417 378.669430225 895.160969083 c 0
 354.624797347 867.12954675 338.043269716 833.005495731 329.363971039 797.108771887 c 0
 320.684672362 761.212048043 320 723.93108458 320 687 c 2
 320 0 l 1
 320 1024 l 1025
  Spiro
    832 0 {
    832 687 ]
    576 980 o
    320 687 [
    320 0 v
    320 1024 v
    0 0 z
  EndSpiro
EndSplineSet
Layer: 4
EndChar
StartChar: t
Encoding: 116 116 20
Width: 1024
VWidth: 0
Flags: W
HStem: -16 120<572.655 893.284> 898 126<128 384 512 896> 1260 20G<384 512>
VStem: 384 128<164.223 898 1024 1280>
AnchorPoint: "bottom" 704 0 basechar 0
LayerCount: 5
Back
Fore
SplineSet
896 18.7223777 m 1
 835.625116144 -1.04186857672 768.552090928 -16 694 -16 c 0
 588 -16 504 28.9999999998 452 92 c 0
 384.188641522 174.156068926 384 270.529812179 384 360 c 2
 384 898 l 1
 128 898 l 1
 128 1024 l 1
 384 1024 l 1
 384 1280 l 1
 512 1280 l 1
 512 1024 l 1
 896 1024 l 1
 896 898 l 1
 512 898 l 1
 512 370 l 2
 512 284.292815556 512 218 555 166 c 0
 586.658636626 127.715137104 637 104 704 104 c 0
 771.977741082 104 840.822619203 124.811288944 896 147.054354347 c 1
 896 18.7223777 l 1
EndSplineSet
Layer: 2
Layer: 3
Layer: 4
EndChar
StartChar: Atilde
Encoding: 195 195 99
Width: 1024
VWidth: 0
Flags: W
HStem: 0 21G<103 244.3 907.7 1049> 388 120<330 821> 1043 109<541.317 610.56> 1284 120<623.658 756.749> 1412 120<395.276 528.342>
VStem: 103 135<0 263.706> 253 128<1305 1405.1> 771 128<1411.78 1511> 914 135<0 263.706>
LayerCount: 5
Back
Refer: 94 126 N 1 0 0 1 0 1036 2
Refer: 29 65 N 1 0 0 1 0 0 3
Fore
SplineSet
821 508 m 1
 767.337890625 708.025390625 688.83984375 886.815429688 581 1043 c 5
 571 1043 l 5
 462.7109375 886.815429688 383.884765625 708.025390625 330 508 c 1
 821 508 l 1
103 0 m 1
 156.467773438 405.818359375 267.232421875 794.454101562 511 1152 c 1
 641 1152 l 1
 884.888671875 794.454101562 995.653320312 405.818359375 1049 0 c 1
 914 0 l 1
 901.400390625 136 883.875 265 851 388 c 1
 301 388 l 1
 268.125 265 250.599609375 136 238 0 c 1
 103 0 l 1
448 1412 m 0
 397 1412 384 1353 381 1299 c 1
 253 1305 l 1
 257 1423 319 1532 448 1532 c 0
 594 1532 627 1404 704 1404 c 0
 755 1404 768 1463 771 1517 c 1
 899 1511 l 1
 896 1395 833 1284 704 1284 c 0
 558 1284 525 1412 448 1412 c 0
EndSplineSet
Layer: 2
Layer: 3
Layer: 4
EndChar
StartChar: Idieresis
Encoding: 207 207 120
Width: 1024
VWidth: 0
Flags: HW
HStem: 0 120<256 512 640 896> 1032 120<256 512 640 896> 1328 224<261.032 442.968 709.032 890.968>
VStem: 240 224<1349.03 1530.97> 512 128<120 1032> 688 224<1349.03 1530.97>
CounterMasks: 1 1c
LayerCount: 5
Back
Fore
SplineSet
896 1152 m 5
 896 1032 l 5
 640 1032 l 5
 640 120 l 1
 896 120 l 1
 896 0 l 1
 256 0 l 1
 256 120 l 1
 512 120 l 1
 512 1032 l 5
 256 1032 l 5
 256 1152 l 5
 896 1152 l 5
800 1552 m 4
 866 1552 912 1506 912 1440 c 4
 912 1374 866 1328 800 1328 c 4
 734 1328 688 1374 688 1440 c 4
 688 1506 734 1552 800 1552 c 4
352 1552 m 4
 418 1552 464 1506 464 1440 c 4
 464 1374 418 1328 352 1328 c 4
 286 1328 240 1374 240 1440 c 4
 240 1506 286 1552 352 1552 c 4
EndSplineSet
Layer: 2
Layer: 3
Layer: 4
EndChar
StartChar: Otilde
Encoding: 213 213 164
Width: 1024
VWidth: 0
Flags: HW
HStem: -16 120<408.149 743.851> 1176 120<408.149 743.851> 1412 120<623.658 756.749> 1540 120<395.276 528.342>
VStem: 112 128<298.492 981.508> 253 128<1433 1533.1> 771 128<1539.78 1639> 912 128<298.492 981.508>
LayerCount: 5
Back
Fore
SplineSet
912 576 m 4
 912 667 907 755 881 833 c 4
 839 961 740 1048 576 1048 c 4
 412 1048 313 961 271 833 c 4
 245 755 240 667 240 576 c 4
 240 485 245 397 271 319 c 4
 313 191 412 104 576 104 c 4
 740 104 839 191 881 319 c 4
 907 397 912 485 912 576 c 4
576 -16 m 4
 354 -16 206 110 149 284 c 4
 117 381 112 482 112 576 c 4
 112 670 117 771 149 868 c 4
 206 1042 354 1168 576 1168 c 4
 798 1168 946 1042 1003 868 c 4
 1035 771 1040 670 1040 576 c 4
 1040 482 1035 381 1003 284 c 4
 946 110 798 -16 576 -16 c 4
448 1412 m 0
 397 1412 384 1353 381 1299 c 1
 253 1305 l 1
 257 1423 319 1532 448 1532 c 0
 594 1532 627 1404 704 1404 c 0
 755 1404 768 1463 771 1517 c 1
 899 1511 l 1
 896 1395 833 1284 704 1284 c 0
 558 1284 525 1412 448 1412 c 0
EndSplineSet
Layer: 2
Layer: 3
Layer: 4
EndChar
StartChar: divide
Encoding: 247 247 159
Width: 1024
VWidth: 0
Flags: W
HStem: 176 224<485.032 666.968> 644 120<128 1024> 1008 224<485.032 666.968>
VStem: 464 224<197.032 378.968 1029.03 1210.97>
CounterMasks: 1 e0
LayerCount: 5
Back
Fore
SplineSet
1024 764 m 1
 1024 644 l 1
 128 644 l 1
 128 764 l 1
 1024 764 l 1
576 400 m 0
 642 400 688 354 688 288 c 0
 688 222 642 176 576 176 c 0
 510 176 464 222 464 288 c 0
 464 354 510 400 576 400 c 0
576 1232 m 0
 642 1232 688 1186 688 1120 c 0
 688 1054 642 1008 576 1008 c 0
 510 1008 464 1054 464 1120 c 0
 464 1186 510 1232 576 1232 c 0
EndSplineSet
Layer: 2
Layer: 3
Layer: 4
EndChar
StartChar: Abreve
Encoding: 258 258 178
Width: 1024
VWidth: 0
Flags: HW
HStem: 0 21G<103 243.014 908.986 1049> 388 120<304.014 847.986> 1161 119<547.907 604.093> 1392 120<418.7 733.3>
VStem: 236 128<1563.55 1664> 788 128<1563.55 1664>
LayerCount: 5
Back
Fore
SplineSet
821 508 m 1
 767.337890625 708.025390625 688.83984375 886.815429688 581 1043 c 5
 571 1043 l 5
 462.7109375 886.815429688 383.884765625 708.025390625 330 508 c 1
 821 508 l 1
103 0 m 1
 156.467773438 405.818359375 267.232421875 794.454101562 511 1152 c 1
 641 1152 l 1
 884.888671875 794.454101562 995.653320312 405.818359375 1049 0 c 1
 914 0 l 1
 901.400390625 136 883.875 265 851 388 c 1
 301 388 l 1
 268.125 265 250.599609375 136 238 0 c 1
 103 0 l 1
788 1536 m 5
 916 1536 l 5
 916 1367.94628906 764.259765625 1264 576 1264 c 4
 387.739257812 1264 236 1367.94433594 236 1536 c 5
 364 1536 l 5
 364 1449.65527344 433.061523438 1384 576 1384 c 4
 718.939453125 1384 788 1449.65332031 788 1536 c 5
EndSplineSet
Layer: 2
Layer: 3
Layer: 4
EndChar
StartChar: Aogonek
Encoding: 260 260 262
Width: 1024
VWidth: 0
Flags: W
HStem: -400 120<779.912 1022.15> -20 20G<865.38 1024> 0 21G<103 243.014 893.224 1024> 388 120<299.014 852.986> 1289 119<547.474 604.526>
VStem: 640 128<-262.716 -135.229>
LayerCount: 5
Back
Fore
SplineSet
103 0 m 1xbc
 146.618164062 496.375 239.294921875 970.75 516 1408 c 1
 636 1408 l 1
 895.955078125 970.75 983.021484375 496.375 1024 0 c 5
 896 0 l 5xdc
 890.448242188 135.987304688 883.3046875 265.390625 873.6796875 388 c 1
 278.3203125 388 l 1
 260.932617188 265.390625 248.028320312 135.987304688 238 0 c 1
 103 0 l 1xbc
852.986328125 508 m 1
 794.40234375 799.734375 709.126953125 1060.64453125 581 1289 c 1
 571 1289 l 1
 442.873046875 1060.64453125 357.59765625 799.734375 299.013671875 508 c 1
 852.986328125 508 l 1
895 -280 m 0
 941 -280 985 -270 1024 -260 c 1
 1024 -383 l 1
 984 -391 941 -400 895 -400 c 0
 781 -400 640 -325 640 -205 c 0
 640 -57 834.760742188 -63 896 0 c 5
 1024 0 l 1
 982.838867188 -91 768 -103 768 -198 c 0
 768 -258 838 -280 895 -280 c 0
EndSplineSet
Layer: 2
Layer: 3
Layer: 4
EndChar
StartChar: Ebreve
Encoding: 276 276 189
Width: 1024
VWidth: 0
Flags: W
HStem: 0 120<384 1024> 516 120<384 896> 1032 120<384 1024> 1264 120<418.7 733.3>
VStem: 236 128<1435.55 1536> 256 128<120 516 636 1032> 788 128<1435.55 1536>
LayerCount: 5
Back
Fore
SplineSet
256 1152 m 5xf6
 1024 1152 l 5
 1024 1032 l 5
 384 1032 l 5
 384 636 l 5
 896 636 l 5
 896 516 l 5
 384 516 l 5
 384 120 l 1
 1024 120 l 1
 1024 0 l 1
 256 0 l 1
 256 1152 l 5xf6
788 1536 m 5
 916 1536 l 5
 916 1367.94628906 764.259765625 1264 576 1264 c 4
 387.739257812 1264 236 1367.94433594 236 1536 c 5
 364 1536 l 5xfa
 364 1449.65527344 433.061523438 1384 576 1384 c 4
 718.939453125 1384 788 1449.65332031 788 1536 c 5
EndSplineSet
Layer: 2
Layer: 3
Layer: 4
EndChar
StartChar: eogonek
Encoding: 281 281 264
Width: 1024
VWidth: 0
Flags: W
HStem: -400 120<651.912 894.146> -20 20G<737.38 896> -16 120<450.346 890.029> 512 120<354.639 797.458> 920 120<445.97 705.959>
VStem: 224 128<210.576 512 632 813.956> 512 128<-262.716 -135.229>
LayerCount: 5
Back
Fore
SplineSet
352 512 m 1xbe
 352 410.497070312 352 308 384 235 c 0
 420 152 485 104 586 104 c 0
 662.2421875 104 767.84765625 120.916992188 896 148 c 1
 896 25 l 1
 768.595703125 -1.4013671875 668.55859375 -16 586 -16 c 0
 417.376953125 -16 311 78 264 193 c 0
 226 286 224 390.729492188 224 512 c 0
 224 632.510742188 225.643554688 734.44140625 263.647460938 829.205078125 c 0
 309.981445312 944.740234375 415.514648438 1040 576 1040 c 0
 736.485351562 1040 842.021484375 944.7421875 888.352539062 829.205078125 c 0
 926.353515625 734.440429688 928 632.510742188 928 512 c 1
 352 512 l 1xbe
797.458007812 632 m 1
 794.057617188 690.013671875 786.173828125 744.1328125 768 789 c 0
 736 868 672 920 576 920 c 0
 480 920 415.655273438 868.138671875 384 789 c 0
 366.025390625 744.063476562 358.102539062 689.974609375 354.638671875 632 c 1
 797.458007812 632 l 1
767 -280 m 0
 813 -280 857 -270 896 -260 c 1
 896 -383 l 1
 856 -391 813 -400 767 -400 c 0
 653 -400 512 -325 512 -205 c 0
 512 -57 706.760742188 -63 768 0 c 5
 896 0 l 1xde
 854.838867188 -91 640 -103 640 -198 c 0
 640 -258 710 -280 767 -280 c 0
EndSplineSet
Layer: 2
Layer: 3
Layer: 4
EndChar
StartChar: Gcircumflex
Encoding: 284 284 204
Width: 1024
VWidth: 0
Flags: HW
HStem: -16 120<446.703 892.628> 520 120<640 896> 1176 120<446.669 927.707> 1408 21G<200 384.591 767.409 952>
VStem: 112 128<342.773 937.204> 896 128<130.442 520>
LayerCount: 5
Back
Fore
SplineSet
896 140 m 1
 896 520 l 1
 640 520 l 1
 640 640 l 1
 1024 640 l 1
 1024 49 l 1
 907 19 787 -16 643 -16 c 0
 300 -16 112 213 112 576 c 0
 112 939 300 1168 643 1168 c 0
 786 1168 907 1133 1024 1103 c 1
 1024 979 l 1
 903 1010 784 1048 643 1048 c 0
 370 1048 240 870 240 576 c 0
 240 282 370 104 643 104 c 0
 735.12109375 104 817.141601562 119.993164062 896.432617188 139.692382812 c 1
 896 140 l 1
497 1536 m 1
 655 1536 l 1
 952 1280 l 1
 794 1280 l 1
 576 1443.96289062 l 1
 358 1280 l 1
 200 1280 l 1
 497 1536 l 1
EndSplineSet
Layer: 2
Layer: 3
Layer: 4
EndChar
StartChar: hcircumflex
Encoding: 293 293 272
Width: 1024
VWidth: 0
Flags: W
HStem: 0 21G<256 384 768 896> 920 120<471.275 704.332> 1260 20G<256 384> 1408 21G<200 384.591 767.409 952>
VStem: 256 128<0 857.984 912 1280> 768 128<0 854.076>
LayerCount: 5
Back
Fore
SplineSet
596 1040 m 0
 696 1040 777.155273438 995.125 827 933 c 0
 896 847 896 751 896 657 c 2
 896 0 l 1
 768 0 l 1
 768 657 l 2
 768 744 767.984375 805.986328125 723 858 c 0
 691 895 640 920 576 920 c 0
 512 920 461.010742188 894.990234375 429 858 c 0
 384 806 384 744 384 657 c 2
 384 0 l 1
 256 0 l 1
 256 1280 l 1
 384 1280 l 1
 384 912 l 1
 394 912 l 1
 443 989 520 1040 596 1040 c 0
497 1664 m 5
 655 1664 l 5
 952 1408 l 5
 794 1408 l 5
 576 1571.96289062 l 5
 358 1408 l 5
 200 1408 l 5
 497 1664 l 5
EndSplineSet
Layer: 2
Layer: 3
Layer: 4
EndChar
StartChar: Itilde
Encoding: 296 296 210
Width: 1024
VWidth: 0
Flags: HW
HStem: 0 120<256 512 640 896> 1160 120<256 512 640 896> 1412 120<623.658 756.749> 1540 120<395.276 528.342>
VStem: 253 128<1433 1533.1> 512 128<120 1160> 771 128<1539.78 1639>
CounterMasks: 1 0e
LayerCount: 5
Back
Fore
SplineSet
896 1152 m 5
 896 1032 l 5
 640 1032 l 5
 640 120 l 1
 896 120 l 1
 896 0 l 1
 256 0 l 1
 256 120 l 1
 512 120 l 1
 512 1032 l 5
 256 1032 l 5
 256 1152 l 5
 896 1152 l 5
448 1412 m 0
 397 1412 384 1353 381 1299 c 1
 253 1305 l 1
 257 1423 319 1532 448 1532 c 0
 594 1532 627 1404 704 1404 c 0
 755 1404 768 1463 771 1517 c 1
 899 1511 l 1
 896 1395 833 1284 704 1284 c 0
 558 1284 525 1412 448 1412 c 0
EndSplineSet
Layer: 2
Layer: 3
Layer: 4
EndChar
StartChar: ibreve
Encoding: 301 301 215
Width: 1024
VWidth: 0
Flags: HW
HStem: 0 120<256 512 640 896> 904 120<256 512> 1136 120<418.7 733.3> 1388 20G<236 364 788 916>
VStem: 236 128<1307.55 1408> 512 128<120 904> 788 128<1307.55 1408>
CounterMasks: 1 0e
LayerCount: 5
Back
Fore
SplineSet
256 0 m 1
 256 120 l 1
 512 120 l 1
 512 904 l 1
 256 904 l 1
 256 1024 l 1
 640 1024 l 1
 640 120 l 1
 896 120 l 1
 896 0 l 1
 256 0 l 1
788 1408 m 5
 916 1408 l 5
 916 1239.94628906 764.259765625 1136 576 1136 c 4
 387.739257812 1136 236 1239.94433594 236 1408 c 5
 364 1408 l 5
 364 1321.65527344 433.061523438 1256 576 1256 c 4
 718.939453125 1256 788 1321.65332031 788 1408 c 5
EndSplineSet
Layer: 2
Layer: 3
Layer: 4
EndChar
StartChar: uni0137
Encoding: 311 311 279
Width: 1024
VWidth: 0
Flags: W
HStem: -528 120<384 483.002> 0 21G<256 384 833.964 1002> 1004 20G<764.815 955>
VStem: 256 128<0 435 607 1536> 512 128<-361.261 -128>
LayerCount: 5
Back
Fore
SplineSet
384 0 m 1
 256 0 l 1
 256 1536 l 1
 384 1536 l 1
 384 607 l 1
 784 1024 l 1
 955 1024 l 1
 592 645 l 1
 1002 0 l 1
 846 0 l 1
 509 560 l 1
 384 435 l 1
 384 0 l 1
640 -233 m 6
 640 -293 639.727539062 -362.798828125 588 -433 c 4
 546 -490 474.005859375 -528 384 -528 c 4
 384 -408 l 4
 431 -408 462.879882812 -390.909179688 484 -363 c 4
 512 -326 512 -283 512 -233 c 6
 512 -128 l 5
 640 -128 l 5
 640 -233 l 6
EndSplineSet
Layer: 2
Layer: 3
Layer: 4
EndChar
StartChar: lcaron
Encoding: 318 318 283
Width: 1024
VWidth: 0
Flags: W
HStem: -16 120<540.664 766.027> 1024 21G<768 896>
VStem: 384 128<149.787 1536> 768 128<1024 1664>
LayerCount: 5
Back
Fore
SplineSet
768 -2 m 5
 725 -9 680 -16 630 -16 c 4
 558 -16 498.638671875 8.650390625 457 52 c 4
 384 128 384 218 384 279 c 4
 384 698 384 1117 384 1536 c 5
 512 1536 l 5
 512 279 l 6
 512 232 512 186 540 148 c 4
 560 121 591 104 640 104 c 4
 677 104 727 113 768 121 c 5
 768 -2 l 5
768 1664 m 5
 896 1664 l 5
 896 1024 l 5
 768 1024 l 5
 768 1664 l 5
EndSplineSet
Layer: 2
Layer: 3
Layer: 4
EndChar
StartChar: Ldot
Encoding: 319 319 287
Width: 1024
VWidth: 0
Flags: W
HStem: 0 120<384 1024> 1260 20G<256 384>
VStem: 256 128<120 1280>
LayerCount: 5
Back
Fore
SplineSet
256 0 m 1
 256 1280 l 1
 384 1280 l 1
 384 120 l 1
 1024 120 l 1
 1024 0 l 1
 256 0 l 1
EndSplineSet
Layer: 2
Layer: 3
Layer: 4
EndChar
StartChar: uni0146
Encoding: 326 326 289
Width: 1024
VWidth: 0
Flags: W
HStem: -528 120<384 483.002> 0 21G<256 384 768 896> 920 120<471.273 704.311> 1004 20G<256 384>
VStem: 256 128<0 857.984 912 1024> 512 128<-361.261 -128> 768 128<0 854.076>
CounterMasks: 1 0e
LayerCount: 5
Back
Fore
SplineSet
596 1040 m 0xee
 696 1040 777 995 827 933 c 0
 896 847 896 751 896 657 c 2
 896 0 l 1
 768 0 l 1
 768 657 l 2
 768 744 768 806 723 858 c 0
 691 895 640 920 576 920 c 0xee
 512 920 461 895 429 858 c 0
 384 806 384 744 384 657 c 2
 384 0 l 1
 256 0 l 1
 256 1024 l 1
 384 1024 l 1xde
 384 912 l 1
 394 912 l 1
 443 989 520 1040 596 1040 c 0xee
640 -233 m 6
 640 -293 639.727539062 -362.798828125 588 -433 c 4
 546 -490 474.005859375 -528 384 -528 c 4
 384 -408 l 4
 431 -408 462.879882812 -390.909179688 484 -363 c 4
 512 -326 512 -283 512 -233 c 6
 512 -128 l 5
 640 -128 l 5
 640 -233 l 6
EndSplineSet
Layer: 2
Layer: 3
Layer: 4
EndChar
StartChar: Eng
Encoding: 330 330 260
Width: 1024
VWidth: 0
Flags: W
HStem: -528 120<514.716 835.345> 0 21G<128 256> 1388 20G<128 265.993 896 1024>
VStem: 128 128<0 1148> 896 128<-347.784 0 260 1408>
LayerCount: 5
Back
Fore
SplineSet
256 0 m 5
 128 0 l 5
 128 1408 l 5
 255 1408 l 5
 886 260 l 5
 896 260 l 5
 896 1408 l 5
 1024 1408 l 5
 1024 888 1024 368 1024 -152 c 4
 1024 -242.223662353 1023.81135848 -337.843931074 956 -420 c 4
 904 -483 820 -528 714 -528 c 4
 639.447909072 -528 572.374883856 -513.04174858 512 -493.27734375 c 5
 512 -364.9453125 l 5
 567.177380797 -387.188550019 636.022258918 -408 704 -408 c 4
 771 -408 821.341363374 -384.284862896 853 -346 c 4
 896 -294 896 -229.691828565 896 -142 c 6
 896 0 l 5
 266 1148 l 5
 256 1148 l 5
 256 0 l 5
EndSplineSet
Layer: 2
Layer: 3
Layer: 4
EndChar
StartChar: racute
Encoding: 341 341 268
Width: 1024
VWidth: 0
Flags: W
HStem: 0 21G<256 384> 920 120<504.976 892.252> 1004 20G<256 384>
VStem: 256 128<0 782.495 876 1024>
LayerCount: 5
Back
Fore
SplineSet
256 1024 m 1xb0
 384 1024 l 1xb0
 384 876 l 1
 394 876 l 1
 460 982 537 1040 665 1040 c 0
 737.095703125 1040 818.080078125 1033.97949219 896 1025.94726562 c 1
 896 902.916015625 l 1
 814.1015625 912.82421875 729.64453125 920 665 920 c 0xd0
 589 920 535.232421875 902.721679688 491 866 c 0
 385 778 384 612 384 535 c 2
 384 0 l 1
 256 0 l 1
 256 1024 l 1xb0
488 1152 m 5
 626 1152 l 5
 792 1408 l 5
 654 1408 l 5
 488 1152 l 5
EndSplineSet
Layer: 2
Layer: 3
Layer: 4
EndChar
StartChar: uni0162
Encoding: 354 354 252
Width: 1024
VWidth: 0
Flags: W
HStem: -400 120<258.23 483.488> -20 20G<512 640> 0 21G<512 640> 1288 120<128 512 640 1024>
VStem: 512 128<-233.261 1288>
LayerCount: 5
Back
Fore
SplineSet
1024 1408 m 1xd8
 1024 1288 l 1
 640 1288 l 1
 640 0 l 1
 512 0 l 1
 512 1288 l 1
 128 1288 l 1
 128 1408 l 1
 1024 1408 l 1xd8
640 -105 m 2
 640 -165 639.727539062 -234.798828125 588 -305 c 0
 546 -362 474.005859375 -400 384 -400 c 0
 349.497070312 -400 303.325195312 -392.83984375 256 -382.889648438 c 1
 256 -260.493164062 l 1
 303.853515625 -271.6953125 350.356445312 -280 384 -280 c 0
 431 -280 462.879882812 -262.909179688 484 -235 c 0
 512 -198 512 -155 512 -105 c 2
 512 0 l 1
 640 0 l 1
 640 -105 l 2
EndSplineSet
Layer: 2
Layer: 3
Layer: 4
EndChar
StartChar: Utilde
Encoding: 360 360 221
Width: 1024
VWidth: 0
Flags: HW
HStem: -16 120<404.818 747.152> 1260 20G<128 256 896 1024> 1412 120<623.658 756.749> 1540 120<395.276 528.342>
VStem: 128 128<254.095 1280> 253 128<1433 1533.1> 771 128<1539.78 1639> 896 128<254.095 1280>
LayerCount: 5
Back
Fore
SplineSet
128 1152 m 5
 256 1152 l 5
 256 512 l 2
 256 437 256 378 268 330 c 0
 301.4140625 196.345703125 416 104 576 104 c 0
 736 104 850.5859375 196.345703125 884 330 c 0
 896 378 896 437 896 512 c 2
 896 1152 l 5
 1024 1152 l 5
 1024 512 l 2
 1024 426 1024.1328125 371.350585938 1008 303 c 0
 964.392578125 118.24609375 797 -16 576 -16 c 0
 355 -16 187.248046875 118.162109375 144 303 c 0
 128 371.381835938 128 426 128 512 c 2
 128 1152 l 5
448 1412 m 0
 397 1412 384 1353 381 1299 c 1
 253 1305 l 1
 257 1423 319 1532 448 1532 c 0
 594 1532 627 1404 704 1404 c 0
 755 1404 768 1463 771 1517 c 1
 899 1511 l 1
 896 1395 833 1284 704 1284 c 0
 558 1284 525 1412 448 1412 c 0
EndSplineSet
Layer: 2
Layer: 3
Layer: 4
EndChar
StartChar: Wcircumflex
Encoding: 372 372 237
Width: 1024
VWidth: 0
Flags: HW
HStem: 0 21G<257 387.136 764.864 895> 1260 20G<116 247 905 1036> 1408 21G<200 384.591 767.409 952>
VStem: 116 131<818.6 1280> 905 131<818.6 1280>
LayerCount: 5
Back
Fore
SplineSet
514 768 m 5
 638 768 l 5
 812 190 l 5
 822 190 l 5
 887 480.469726562 905 824.499023438 905 1152 c 5
 1036 1152 l 5
 1036 766.041015625 988.377929688 382.333007812 895 2 c 5
 770 0 l 5
 581 628 l 5
 571 628 l 5
 382 0 l 5
 257 2 l 5
 163.622070312 382.333007812 116 766.041015625 116 1152 c 5
 247 1152 l 5
 247 824.499023438 266.370117188 480.469726562 330 190 c 5
 340 190 l 5
 514 768 l 5
497 1536 m 1
 655 1536 l 1
 952 1280 l 1
 794 1280 l 1
 576 1443.96289062 l 1
 358 1280 l 1
 200 1280 l 1
 497 1536 l 1
EndSplineSet
Layer: 2
Layer: 3
Layer: 4
EndChar
StartChar: Ydieresis
Encoding: 376 376 236
Width: 1024
VWidth: 0
Flags: HW
HStem: 0 21G<512 640> 1260 20G<103 261.17 890.83 1049> 1456 224<261.032 442.968 709.032 890.968>
VStem: 103 135<1077.14 1280> 240 224<1477.03 1658.97> 512 128<0 488.354> 688 224<1477.03 1658.97> 914 135<1077.14 1280>
LayerCount: 5
Back
Fore
SplineSet
113 1152 m 5
 238 1152 l 5
 302.618164062 939.180664062 397.975585938 758.170898438 561 612 c 5
 591 612 l 5
 754.024414062 758.170898438 849.381835938 939.180664062 914 1152 c 5
 1039 1152 l 5
 977.540039062 922.772460938 868.034179688 713.750976562 640 512 c 5
 640 0 l 5
 512 0 l 5
 512 512 l 5
 283.965820312 713.750976562 174.459960938 922.772460938 113 1152 c 5
800 1552 m 4
 866 1552 912 1506 912 1440 c 4
 912 1374 866 1328 800 1328 c 4
 734 1328 688 1374 688 1440 c 4
 688 1506 734 1552 800 1552 c 4
352 1552 m 4
 418 1552 464 1506 464 1440 c 4
 464 1374 418 1328 352 1328 c 4
 286 1328 240 1374 240 1440 c 4
 240 1506 286 1552 352 1552 c 4
EndSplineSet
Layer: 2
Layer: 3
Layer: 4
EndChar
StartChar: uni0206
Encoding: 518 518 307
Width: 1024
VWidth: 0
Flags: HW
HStem: 0 120<384 1024> 644 120<384 896> 1160 120<384 1024> 1408 21G<236 364 788 916> 1560 120<418.7 733.3>
VStem: 236 128<1408 1508.45> 256 128<120 644 764 1160> 788 128<1408 1508.45>
LayerCount: 5
Back
Fore
SplineSet
256 1152 m 5
 1024 1152 l 5
 1024 1032 l 5
 384 1032 l 5
 384 636 l 5
 896 636 l 5
 896 516 l 5
 384 516 l 5
 384 120 l 5
 1024 120 l 5
 1024 0 l 5
 256 0 l 5
 256 1152 l 5
788 1280 m 5
 788 1366.34667969 718.939453125 1432 576 1432 c 4
 433.061523438 1432 364 1366.34472656 364 1280 c 5
 236 1280 l 5
 236 1448.05566406 387.739257812 1552 576 1552 c 4
 764.259765625 1552 916 1448.05371094 916 1280 c 5
 788 1280 l 5
EndSplineSet
Layer: 2
Layer: 3
Layer: 4
EndChar
StartChar: uni020C
Encoding: 524 524 313
Width: 1024
VWidth: 0
Flags: HW
HStem: -16 120<408.149 743.851> 1176 120<408.149 743.851> 1408 21G<385.031 536 641.031 792>
VStem: 112 128<298.492 981.508> 912 128<298.492 981.508>
LayerCount: 5
Back
Fore
SplineSet
912 576 m 4
 912 667 907 755 881 833 c 4
 839 961 740 1048 576 1048 c 4
 412 1048 313 961 271 833 c 4
 245 755 240 667 240 576 c 4
 240 485 245 397 271 319 c 4
 313 191 412 104 576 104 c 4
 740 104 839 191 881 319 c 4
 907 397 912 485 912 576 c 4
576 -16 m 4
 354 -16 206 110 149 284 c 4
 117 381 112 482 112 576 c 4
 112 670 117 771 149 868 c 4
 206 1042 354 1168 576 1168 c 4
 798 1168 946 1042 1003 868 c 4
 1035 771 1040 670 1040 576 c 4
 1040 482 1035 381 1003 284 c 4
 946 110 798 -16 576 -16 c 4
408 1280 m 5
 270 1280 l 5
 104 1536 l 5
 242 1536 l 5
 408 1280 l 5
792 1280 m 5
 654 1280 l 5
 488 1536 l 5
 626 1536 l 5
 792 1280 l 5
EndSplineSet
Layer: 2
Layer: 3
Layer: 4
EndChar
StartChar: uni0212
Encoding: 530 530 319
Width: 1024
VWidth: 0
Flags: HW
HStem: 0 21G<128 256 793.584 937> 512 120<256 561> 1160 120<256 676.624> 1408 21G<108 236 660 788> 1560 120<290.7 605.3>
VStem: 108 128<1408 1508.45> 128 128<0 512 632 1160> 660 128<1408 1508.45> 784 128<740.856 1052.75>
LayerCount: 5
Back
Fore
SplineSet
553 1032 m 1026,0,-1
553 1152 m 2,1,-1
 591 1152 633 1152 679 1141 c 0,4,-1
 812 1109 912 997 912 836 c 0,7,-1
 912 679 817 569 689 534 c 1,10,-1
 938 0 l 1,11,-1
 799 0 l 1,12,-1
 556 520 l 1,13,-1
 256 520 l 1,14,-1
 256 0 l 1,15,-1
 128 0 l 1,16,-1
 128 1152 l 1,17,-1
 553 1152 l 2,1,-1
553 1032 m 2,18,-1
 256 1032 l 1,19,-1
 256 640 l 1,20,-1
 553 640 l 2,21,-1
 589 640 621 641 648 647 c 0,24,-1
 729 666 784 736 784 836 c 0,27,-1
 784 936 729 1007 648 1025 c 0,30,-1
 621 1031 589 1032 553 1032 c 2,18,-1
660 1280 m 5,0,-1
 660 1366.34667969 590.939453125 1432 448 1432 c 4,3,-1
 305.061523438 1432 236 1366.34472656 236 1280 c 5,6,-1
 108 1280 l 5,7,-1
 108 1448.05566406 259.739257812 1552 448 1552 c 4,10,-1
 636.259765625 1552 788 1448.05371094 788 1280 c 5,13,-1
 660 1280 l 5,0,-1
EndSplineSet
Layer: 2
Layer: 3
Layer: 4
EndChar
StartChar: uni0214
Encoding: 532 532 321
Width: 1024
VWidth: 0
Flags: W
HStem: -16 120<404.818 747.152> 1132 20G<128 256 896 1024>
VStem: 128 128<254.095 1152> 896 128<254.095 1152>
LayerCount: 5
Back
Fore
SplineSet
128 1152 m 1
 256 1152 l 1
 256 512 l 2
 256 437 256 378 268 330 c 0
 301.4140625 196.345703125 416 104 576 104 c 0
 736 104 850.5859375 196.345703125 884 330 c 0
 896 378 896 437 896 512 c 2
 896 1152 l 1
 1024 1152 l 1
 1024 512 l 2
 1024 426 1024.1328125 371.350585938 1008 303 c 0
 964.392578125 118.24609375 797 -16 576 -16 c 0
 355 -16 187.248046875 118.162109375 144 303 c 0
 128 371.381835938 128 426 128 512 c 2
 128 1152 l 1
536 1280 m 5
 398 1280 l 5
 232 1536 l 5
 370 1536 l 5
 536 1280 l 5
920 1280 m 5
 782 1280 l 5
 616 1536 l 5
 754 1536 l 5
 920 1280 l 5
EndSplineSet
Layer: 2
Layer: 3
Layer: 4
EndChar
StartChar: uni0306
Encoding: 774 774 111
Width: 1024
VWidth: 0
Flags: W
HStem: 1264 120<418.7 733.3>
VStem: 236 128<1435.55 1536> 788 128<1435.55 1536>
AnchorPoint: "top" 576 1152 mark 0
LayerCount: 5
Back
SplineSet
852 1536 m 4
 852 1408.8 741.6 1324 576 1324 c 4
 410.4 1324 300 1408.8 300 1536 c 1028
EndSplineSet
Fore
SplineSet
788 1536 m 5
 916 1536 l 5
 916 1367.94628906 764.259765625 1264 576 1264 c 4
 387.739257812 1264 236 1367.94433594 236 1536 c 5
 364 1536 l 5
 364 1449.65527344 433.061523438 1384 576 1384 c 4
 718.939453125 1384 788 1449.65332031 788 1536 c 5
EndSplineSet
Layer: 2
Layer: 3
Layer: 4
EndChar
StartChar: uni0400
Encoding: 1024 1024 330
Width: 1024
VWidth: 0
Flags: H
LayerCount: 5
Back
Fore
SplineSet
256 1152 m 5
 1024 1152 l 5
 1024 1032 l 5
 384 1032 l 5
 384 636 l 5
 896 636 l 5
 896 516 l 5
 384 516 l 5
 384 120 l 5
 1024 120 l 5
 1024 0 l 5
 256 0 l 5
 256 1152 l 5
664 1280 m 5
 526 1280 l 5
 360 1536 l 5
 498 1536 l 5
 664 1280 l 5
EndSplineSet
Layer: 2
Layer: 3
Layer: 4
EndChar
